<svg width="29" height="28" viewBox="0 0 29 28" fill="none" xmlns="http://www.w3.org/2000/svg">
<path fill-rule="evenodd" clip-rule="evenodd" d="M14.5815 0C10.8685 5.53285e-08 7.30756 1.475 4.68205 4.1005C2.05654 6.72601 0.581543 10.287 0.581543 14C0.581543 17.713 2.05654 21.274 4.68205 23.8995C7.30756 26.525 10.8685 28 14.5815 28H21.5815C23.7562 28 24.8435 28 25.7007 27.6453C26.267 27.4108 26.7816 27.067 27.2151 26.6335C27.6485 26.2001 27.9924 25.6855 28.2269 25.1191C28.5815 24.262 28.5815 23.1747 28.5815 21V14C28.5815 10.287 27.1065 6.72601 24.481 4.1005C21.8555 1.475 18.2946 0 14.5815 0ZM8.35932 12.4444C8.35932 12.0319 8.52321 11.6362 8.81493 11.3445C9.10666 11.0528 9.50232 10.8889 9.91488 10.8889H19.2482C19.6608 10.8889 20.0564 11.0528 20.3482 11.3445C20.6399 11.6362 20.8038 12.0319 20.8038 12.4444C20.8038 12.857 20.6399 13.2527 20.3482 13.5444C20.0564 13.8361 19.6608 14 19.2482 14H9.91488C9.50232 14 9.10666 13.8361 8.81493 13.5444C8.52321 13.2527 8.35932 12.857 8.35932 12.4444ZM13.026 18.6667C13.026 18.2541 13.1899 17.8584 13.4816 17.5667C13.7733 17.275 14.169 17.1111 14.5815 17.1111H19.2482C19.6608 17.1111 20.0564 17.275 20.3482 17.5667C20.6399 17.8584 20.8038 18.2541 20.8038 18.6667C20.8038 19.0792 20.6399 19.4749 20.3482 19.7666C20.0564 20.0583 19.6608 20.2222 19.2482 20.2222H14.5815C14.169 20.2222 13.7733 20.0583 13.4816 19.7666C13.1899 19.4749 13.026 19.0792 13.026 18.6667Z" fill="#CCCCCC"/>
</svg>
